<svg width="255" height="112" viewBox="0 0 255 112" fill="none" xmlns="http://www.w3.org/2000/svg">
<path d="M220.725 58.368V68.096H215.861V77.824H210.997V82.688H235.317V77.824H240.181V68.096H245.045V24.32H240.181V29.184H235.317V38.912H230.453V48.64H225.589V58.368H220.725ZM215.861 58.368V48.64H220.725V38.912H225.589V29.184H230.453V19.456H235.317V9.728H210.997V14.592H206.133V24.32H201.269V68.096H210.997V58.368H215.861ZM201.269 87.552V77.824H196.405V68.096H191.541V24.32H196.405V14.592H201.269V4.86401H210.997V0H235.317V4.86401H245.045V14.592H249.909V24.32H254.773V68.096H249.909V77.824H245.045V87.552H235.317V92.416H210.997V87.552H201.269Z" fill="#33332A"/>
<path d="M79.875 92.416V23.808H97.155L97.539 34.944C99.2457 30.9333 101.72 27.8187 104.963 25.6C108.291 23.3813 112.046 22.272 116.227 22.272C121.176 22.272 125.315 23.552 128.643 26.112C131.971 28.5867 134.36 31.9573 135.811 36.224C137.432 31.7013 139.907 28.2453 143.235 25.856C146.648 23.4667 150.616 22.272 155.139 22.272C162.136 22.272 167.726 24.4907 171.907 28.928C176.088 33.3653 178.179 39.808 178.179 48.256V92.416H158.979V53.632C158.979 42.88 155.523 37.504 148.611 37.504C145.112 37.504 142.382 38.9547 140.419 41.856C138.542 44.672 137.603 48.6827 137.603 53.888V92.416H120.323V53.888C120.323 48.5973 119.555 44.544 118.019 41.728C116.483 38.912 113.838 37.504 110.083 37.504C106.584 37.504 103.854 38.9547 101.891 41.856C100.014 44.7573 99.075 48.768 99.075 53.888V92.416H79.875Z" fill="#33332A"/>
<path d="M0 111.616V23.808H18.432L18.688 34.048C20.736 30.208 23.5093 27.3067 27.008 25.344C30.5067 23.296 34.5173 22.272 39.04 22.272C45.44 22.272 50.7733 23.8507 55.04 27.008C59.392 30.1653 62.6347 34.4747 64.768 39.936C66.9013 45.312 67.968 51.3707 67.968 58.112C67.968 64.8533 66.8587 70.9547 64.64 76.416C62.5067 81.792 59.264 86.0587 54.912 89.216C50.6453 92.3733 45.312 93.952 38.912 93.952C34.6453 93.952 30.7627 92.9707 27.264 91.008C23.7653 89.0453 21.0773 86.3147 19.2 82.816V111.616H0ZM33.664 79.232C38.1867 79.232 41.728 77.3547 44.288 73.6C46.9333 69.8453 48.256 64.6827 48.256 58.112C48.256 51.5413 46.9333 46.3787 44.288 42.624C41.728 38.8693 38.1867 36.992 33.664 36.992C29.1413 36.992 25.6 38.784 23.04 42.368C20.48 45.952 19.2 51.2 19.2 58.112C19.2 65.024 20.4373 70.272 22.912 73.856C25.472 77.44 29.056 79.232 33.664 79.232Z" fill="#33332A"/>
</svg>
